<?xml version="1.0" encoding="UTF-8"?><svg id="_イヤー_2" xmlns="http://www.w3.org/2000/svg" viewBox="0 0 41.87 41.87"><defs><style>.cls-1,.cls-2{fill:#fff;}.cls-2{opacity:.5;}</style></defs><g id="_イヤー_7"><g><path class="cls-1" d="M13.96,20.72c0,.07,0,.14,0,.21s0,.14,0,.21c.06,2.08,1.03,3.93,2.53,5.17,1.21,1,2.76,1.6,4.45,1.6s3.24-.6,4.45-1.6c1.5-1.24,2.47-3.09,2.53-5.17,0-.07,0-.14,0-.21s0-.14,0-.21c-.02-1.28-.2-2.52-.52-3.7,4.06,2.26,6.81,6.6,6.81,11.59,0,1.66-.31,3.25-.86,4.72-.23,.6-.5,1.18-.81,1.73-2.21,3.96-6.38,6.67-11.21,6.8-.12,0-.25,0-.38,0s-.25,0-.38,0c-3.47-.06-6.74-.97-9.6-2.52-3.56-1.93-6.49-4.87-8.43-8.43C.97,28.05,.06,24.78,0,21.31c0-.12,0-.25,0-.38s0-.25,0-.38c.06-3.47,.97-6.74,2.52-9.6C6.07,4.43,12.99,0,20.93,0c7.95,0,14.86,4.43,18.41,10.95-2.68-2.88-6.49-4.67-10.73-4.67-2.81,0-5.44,.79-7.68,2.17-.44,.27-.86,.56-1.27,.88-1.96,1.51-3.53,3.51-4.52,5.82-.26,.61-.48,1.23-.66,1.88-.33,1.18-.51,2.42-.52,3.7Z"/><path class="cls-2" d="M41.87,20.93c0,.13,0,.25,0,.38-.06,3.47-.97,6.74-2.52,9.6-1.93,3.56-4.87,6.49-8.43,8.43,1.48-1.38,2.68-3.06,3.49-4.94,.26-.61,.48-1.23,.66-1.88,.34-1.24,.53-2.56,.53-3.91,0-6.04-3.65-11.22-8.86-13.47-.61-.26-1.23-.48-1.88-.66-1.18-.33-2.42-.51-3.7-.52-.07,0-.14,0-.21,0s-.14,0-.21,0c-1.61,.05-3.08,.64-4.24,1.6,.16-.37,.34-.72,.54-1.07,.96-1.73,2.3-3.22,3.91-4.36,.41-.29,.83-.56,1.27-.8,1.9-1.05,4.08-1.65,6.41-1.65,7.2,0,13.05,5.73,13.25,12.88,0,.12,0,.25,0,.38Z"/></g></g></svg>