<?xml version="1.0" encoding="UTF-8"?><svg id="_イヤー_2" xmlns="http://www.w3.org/2000/svg" viewBox="0 0 109.1 109.1"><defs><style>.cls-1,.cls-2{fill:#3e3a39;}.cls-2{opacity:.7;} @media (prefers-color-scheme: dark) {.cls-1,.cls-2{fill:#fff;}.cls-2{opacity:.7;}}</style></defs><g id="_イヤー_1-2"><g><path class="cls-1" d="M54.55,109.1c-.32,0-.64,0-.96-.01-8.76-.15-17.41-2.42-25.04-6.57-9.31-5.06-16.91-12.65-21.96-21.96C2.43,72.92,.16,64.26,.01,55.53c0-.34-.01-.66-.01-.98s0-.64,.01-.96c.15-8.76,2.42-17.41,6.57-25.05C16.15,10.94,34.53,0,54.55,0c15.62,0,30.25,6.66,40.46,17.96-6.01-3.24-12.8-4.99-19.73-4.99-7.71,0-15.25,2.13-21.78,6.16-1.25,.77-2.46,1.6-3.6,2.49-5.59,4.31-10.03,10.02-12.83,16.5-.75,1.74-1.38,3.54-1.88,5.34-.94,3.41-1.44,6.94-1.49,10.5,0,.15,0,.37,0,.59s0,.45,.01,.67c.17,5.94,2.92,11.57,7.55,15.4,3.72,3.08,8.44,4.78,13.29,4.78s9.57-1.7,13.29-4.78c4.62-3.82,7.38-9.45,7.55-15.44,0-.18,.01-.4,.01-.63s0-.44-.01-.67c-.02-1.85-.17-3.72-.46-5.58,8.38,6.34,13.43,16.31,13.43,26.98,0,4.14-.74,8.19-2.2,12.04-.57,1.51-1.27,2.99-2.06,4.41-5.78,10.37-16.74,17.02-28.59,17.35-.32,0-.64,.01-.96,.01Z"/><path class="cls-2" d="M91.19,94.98c.57-1.06,1.09-2.15,1.57-3.26,.75-1.74,1.38-3.54,1.88-5.34,.99-3.6,1.5-7.33,1.5-11.09,0-16.63-9.87-31.63-25.15-38.21-1.73-.75-3.53-1.38-5.34-1.88-3.41-.94-6.94-1.44-10.5-1.49-.15,0-.37,0-.59,0s-.45,0-.67,.01c-2.06,.06-4.1,.44-6.05,1.1,2.18-3.02,4.85-5.69,7.88-7.84,1.05-.75,2.14-1.43,3.23-2.03,4.98-2.76,10.63-4.21,16.35-4.21,18.44,0,33.29,14.43,33.8,32.86,0,.32,.01,.64,.01,.96s0,.64-.01,.96c-.15,8.76-2.42,17.41-6.57,25.05-2.96,5.45-6.79,10.31-11.33,14.42Z"/></g></g></svg>